<svg xmlns="http://www.w3.org/2000/svg" viewBox="0 0 500 500"><defs><style>.cls-1{fill:#d8d8e1;opacity:0;}.cls-2{fill:#3d359e;}.cls-3{fill:#00cdd8;}.cls-4{fill:#8a68f6;}</style></defs><title>Asset 12</title><g id="Layer_2" data-name="Layer 2"><g id="Layer_1-2" data-name="Layer 1"><rect class="cls-1" width="500" height="500"/><path class="cls-2" d="M300,142.86H231.53a7.15,7.15,0,0,0-5.05,2.09l-69.34,69.34V142.86h-50V357.14h50V285.71l69.34,69.34a7.15,7.15,0,0,0,5.05,2.09H300L192.86,250Z"/><path class="cls-3" d="M392.86,142.86H324.39a7.13,7.13,0,0,0-5.05,2.09l-58.63,58.62,35.72,35.72Z"/><path class="cls-3" d="M260.71,296.43l58.63,58.62a7.13,7.13,0,0,0,5.05,2.09h68.47l-96.43-96.43Z"/><rect class="cls-4" x="224.75" y="224.75" width="50.51" height="50.51" transform="translate(-103.55 250) rotate(-45)"/></g></g></svg>